<svg xmlns="http://www.w3.org/2000/svg" width="182" height="185" viewBox="0 0 182 185"><g><g opacity=".1"><g opacity=".1"><path fill="#fff" d="M-.002-.086C2.41.072 4.825.38 7.236.36 16.86.278 26.486.145 36.107-.098c2.024-.052 3.182.735 4.228 2.345a39913.882 39913.882 0 0 0 42.513 65.255c8.682 13.306 17.337 26.631 26.14 39.86 1.687 2.534 1.753 4.486.085 7.07-5.458 8.459-10.68 17.072-15.999 25.623-.586.945-1.199 1.874-1.983 3.098L41.354 69.654l-.51.145v115.295H-.002z"/></g><g opacity=".1"><path fill="#fff" d="M181.762 185.102H141.42V63.329l-.736-.26c-2.96 4.7-5.919 9.403-9.091 14.442-2.975-4.545-5.813-8.86-8.63-13.189-3.504-5.386-6.918-10.833-10.526-16.148-1.22-1.798-1.152-3.193-.04-4.961a7569.744 7569.744 0 0 0 25.361-40.666c1.095-1.765 2.555-2.469 4.533-2.441 12.505.18 25.01.348 37.513.527.596.007 1.19.076 1.958.129z"/></g></g></g></svg>