<svg xmlns="http://www.w3.org/2000/svg" width="27" height="16" viewBox="0 0 27 16"><g><g><g><path fill="#fff" d="M25.875 2.25H1.125A1.128 1.128 0 0 1 0 1.125C0 .506.506 0 1.125 0h24.75C26.494 0 27 .506 27 1.125s-.506 1.125-1.125 1.125z"/></g><g><path fill="#fff" d="M25.875 9H1.125A1.128 1.128 0 0 1 0 7.875C0 7.256.506 6.75 1.125 6.75h24.75c.619 0 1.125.506 1.125 1.125S26.494 9 25.875 9z"/></g><g><path fill="#fff" d="M25.875 15.75H1.125A1.128 1.128 0 0 1 0 14.625c0-.619.506-1.125 1.125-1.125h24.75c.619 0 1.125.506 1.125 1.125s-.506 1.125-1.125 1.125z"/></g></g></g></svg>