<svg width="256" height="138" viewBox="0 0 256 138" fill="none" xmlns="http://www.w3.org/2000/svg">
<path d="M54.1111 120.241C52.7426 118.872 47.5535 123.947 45.13 126.656C45.9852 127.511 48.1234 129.564 49.8341 130.933C51.5448 132.302 52.828 136.065 53.2558 137.776C48.4087 134.069 38.0303 125.373 35.2932 120.241C31.8718 113.826 49.4064 100.568 47.6957 97.5743C45.985 94.5806 33.1548 103.562 30.5887 101.851C28.0227 100.14 33.1548 96.719 33.1548 95.008C33.1548 93.297 29.3057 96.2913 27.595 95.008C25.8843 93.7246 29.3057 91.5869 33.1548 89.8762C37.0039 88.1655 34.4378 84.3164 33.1548 82.6057C31.8718 80.895 14.7648 85.1718 13.0541 80.4672C11.3434 75.7626 18.1862 77.9013 18.6139 74.9076C19.0415 71.9139 13.9094 72.7692 13.0541 68.9198C12.1987 65.0705 25.029 64.6431 22.8906 60.794C20.7522 56.945 3.21788 67.2091 0.22416 58.2283C-2.76956 49.2474 24.6016 43.2595 59.6709 26.5804C94.7402 9.90123 124.453 4.12305 159.95 0.701653C195.447 -2.71974 234.162 7.11672 246.992 14.1777C256.471 19.3943 229.661 9.25509 212.127 8.39974C198.099 7.71547 168.158 10.3285 157.608 11.6115C168.015 11.3264 191.769 9.68264 206.139 9.68264C220.509 9.68264 237.869 14.7478 244.426 16.7436L242.716 21.0204C243.286 21.3055 245.196 21.9613 248.275 22.3034C251.355 22.6455 251.839 24.7269 251.697 25.7248C253.265 26.0099 256.316 27.3499 255.973 30.4292C255.631 33.5085 252.98 33.9932 251.697 33.8506C249.986 34.4208 246.137 35.4758 244.426 35.1336C242.288 34.7059 229.458 31.2845 224.326 30.4292C219.193 29.5738 220.049 31.2846 224.326 32.14C227.747 32.8243 238.011 35.8465 242.716 37.2721H232.024C227.523 37.2721 233.82 40.8645 234.162 43.2595C234.59 46.2532 230.313 45.8256 228.602 47.5363C227.234 48.9048 225.181 52.9535 224.326 54.8067C216.627 54.8067 199.007 55.3199 190.112 57.3726C181.216 59.4253 147.914 73.6243 132.376 80.4672C146.061 75.1925 176.768 61.3075 190.112 58.2283C203.455 55.149 216.485 57.2301 221.332 57.3726C220.476 58.228 218.338 60.1097 216.627 60.794C214.489 61.6494 209.357 62.077 204.225 62.5047C200.119 62.8469 190.824 65.7836 186.69 67.2091V64.6431C184.837 65.2133 160.036 72.8547 155.246 74.9076C149.258 77.4736 118.893 87.5196 111.623 93.507C106.505 97.7217 145.888 83.7608 172.999 73.063C176.885 71.4893 180.376 70.0819 183.269 68.9198C180.17 70.2038 176.699 71.603 172.999 73.063C153.524 80.949 124.112 93.0098 110.136 99.2847C93.3717 106.812 80.627 116.392 76.3502 120.241C74.6395 120.811 70.2772 122.55 66.5137 124.945C62.7502 127.34 60.0986 131.075 59.2432 132.643C58.1028 132.216 55.3086 130.933 53.2558 129.222C50.6897 127.084 55.8218 121.952 54.1111 120.241Z" fill="#FF0000"/>
<path d="M72.2637 68.1943C72.0853 69.2729 71.8226 70.2412 71.4758 71.0992C71.1421 71.9351 70.7463 72.674 70.2885 73.3158C69.8438 73.9355 69.3591 74.4338 68.8342 74.8107C68.3094 75.1876 67.7732 75.4452 67.2257 75.5836C66.6782 75.7219 66.1436 75.7255 65.6219 75.5943C65.1179 75.4586 64.6356 75.1859 64.175 74.7762C63.7145 74.3664 63.2867 73.8263 62.8918 73.1557C62.5145 72.4807 62.2031 71.6574 61.9577 70.686C61.5381 69.0258 61.3548 67.3341 61.4079 65.6108C61.4565 63.8698 61.7329 62.2498 62.2372 60.7507C62.7415 59.2516 63.4606 57.9707 64.3946 56.9079C65.3418 55.823 66.5042 55.1065 67.8818 54.7583C68.3057 54.6512 68.7342 54.6369 69.1674 54.7153C69.6006 54.7937 69.9987 54.9562 70.3616 55.2027C70.7246 55.4492 71.0435 55.782 71.3185 56.201C71.6112 56.6156 71.8289 57.1055 71.9718 57.6706C71.9985 57.7766 72.0276 57.8914 72.0588 58.0151C72.0856 58.121 72.1058 58.2381 72.1193 58.3662L68.8831 60.1704C68.5596 59.7825 68.2565 59.6242 67.9739 59.6956C67.6913 59.767 67.4335 60.0107 67.2004 60.4266C66.9805 60.8204 66.7873 61.3201 66.621 61.9259C66.4502 62.5139 66.306 63.1704 66.1886 63.8953C66.0667 64.6026 65.9823 65.3097 65.9355 66.0168C65.8887 66.7238 65.8705 67.3955 65.881 68.0317C65.9046 68.6458 65.9633 69.1382 66.0571 69.5091C66.1999 70.0743 66.371 70.4539 66.5703 70.6478C66.7873 70.8372 67.0194 70.9007 67.2667 70.8382C67.4609 70.7891 67.6639 70.6627 67.8754 70.4589C68.0825 70.2374 68.263 69.9851 68.4169 69.702C68.5664 69.4011 68.6915 69.0783 68.7922 68.7334C68.893 68.3885 68.9407 68.057 68.9355 67.7389L72.2637 68.1943Z" fill="white"/>
<path d="M72.2637 68.1943C72.0853 69.2729 71.8226 70.2412 71.4758 71.0992C71.1421 71.9351 70.7463 72.674 70.2885 73.3158C69.8438 73.9355 69.3591 74.4338 68.8342 74.8107C68.3094 75.1876 67.7732 75.4452 67.2257 75.5836C66.6782 75.7219 66.1436 75.7255 65.6219 75.5943C65.1179 75.4586 64.6356 75.1859 64.175 74.7762C63.7145 74.3664 63.2867 73.8263 62.8918 73.1557C62.5145 72.4807 62.2031 71.6574 61.9577 70.686C61.5381 69.0258 61.3548 67.3341 61.4079 65.6108C61.4565 63.8698 61.7329 62.2498 62.2372 60.7507C62.7415 59.2516 63.4606 57.9707 64.3946 56.9079C65.3418 55.823 66.5042 55.1065 67.8818 54.7583C68.3057 54.6512 68.7342 54.6369 69.1674 54.7153C69.6006 54.7937 69.9987 54.9562 70.3616 55.2027C70.7246 55.4492 71.0435 55.782 71.3185 56.201C71.6112 56.6156 71.8289 57.1055 71.9718 57.6706C71.9985 57.7766 72.0276 57.8914 72.0588 58.0151C72.0856 58.121 72.1058 58.2381 72.1193 58.3662L68.8831 60.1704C68.5596 59.7825 68.2565 59.6242 67.9739 59.6956C67.6913 59.767 67.4335 60.0107 67.2004 60.4266C66.9805 60.8204 66.7873 61.3201 66.621 61.9259C66.4502 62.5139 66.306 63.1704 66.1886 63.8953C66.0667 64.6026 65.9823 65.3097 65.9355 66.0168C65.8887 66.7238 65.8705 67.3955 65.881 68.0317C65.9046 68.6458 65.9633 69.1382 66.0571 69.5091C66.1999 70.0743 66.371 70.4539 66.5703 70.6478C66.7873 70.8372 67.0194 70.9007 67.2667 70.8382C67.4609 70.7891 67.6639 70.6627 67.8754 70.4589C68.0825 70.2374 68.263 69.9851 68.4169 69.702C68.5664 69.4011 68.6915 69.0783 68.7922 68.7334C68.893 68.3885 68.9407 68.057 68.9355 67.7389L72.2637 68.1943Z" fill="white"/>
<path d="M84.5744 55.8951C84.9404 57.3434 85.1273 58.7523 85.1352 60.122C85.1563 61.4695 85.0469 62.7467 84.807 63.9535C84.5626 65.1427 84.2031 66.2482 83.7285 67.27C83.2671 68.2697 82.7414 69.1636 82.1514 69.9515C81.5569 70.7218 80.9201 71.3619 80.2409 71.8717C79.5574 72.3639 78.8712 72.697 78.1823 72.8711C77.5995 73.0184 77.0429 73.0463 76.5124 72.9549C75.9775 72.8458 75.4799 72.6239 75.0195 72.2893C74.5547 71.937 74.1315 71.4521 73.75 70.8345C73.3816 70.1948 73.077 69.3981 72.8359 68.4443C72.586 67.4553 72.4463 66.382 72.4168 65.2244C72.3874 64.0669 72.4484 62.8959 72.6001 61.7114C72.7517 60.5269 73.0138 59.3708 73.3865 58.2432C73.7592 57.1156 74.2227 56.0872 74.7771 55.1579C75.327 54.211 75.97 53.4096 76.7062 52.7538C77.4424 52.098 78.2697 51.6541 79.1881 51.422C79.9829 51.2212 80.6788 51.2238 81.2758 51.4299C81.886 51.614 82.3993 51.9352 82.8158 52.3936C83.2455 52.83 83.6047 53.3592 83.8935 53.9815C84.1823 54.6037 84.4092 55.2416 84.5744 55.8951ZM76.6093 66.758C76.6584 66.9522 76.7451 67.1464 76.8693 67.3405C76.9935 67.5346 77.1375 67.6955 77.3013 67.8232C77.4651 67.9509 77.6509 68.0543 77.8588 68.1333C78.0798 68.1902 78.2963 68.1918 78.5083 68.1383C79.3031 67.9374 79.9404 67.4851 80.4202 66.7814C80.9 66.0776 81.2426 65.2771 81.4479 64.3796C81.6533 63.4822 81.7482 62.5563 81.7325 61.602C81.7344 60.6432 81.6417 59.7929 81.4542 59.0511C81.4007 58.8392 81.325 58.614 81.2272 58.3757C81.147 58.1329 81.036 57.9167 80.8942 57.727C80.77 57.5329 80.6017 57.3876 80.3894 57.2909C80.1902 57.1721 79.9494 57.1484 79.6668 57.2198C79.1016 57.3627 78.6163 57.6356 78.2108 58.0387C77.8054 58.4418 77.4686 58.9309 77.2006 59.506C76.9457 60.0589 76.7529 60.6713 76.622 61.3433C76.4867 61.9975 76.3912 62.6605 76.3355 63.3322C76.2929 63.9818 76.3012 64.6092 76.3602 65.2144C76.4191 65.8195 76.5022 66.3341 76.6093 66.758Z" fill="white"/>
<path d="M84.5744 55.8951C84.9404 57.3434 85.1273 58.7523 85.1352 60.122C85.1563 61.4695 85.0469 62.7467 84.807 63.9535C84.5626 65.1427 84.2031 66.2482 83.7285 67.27C83.2671 68.2697 82.7414 69.1636 82.1514 69.9515C81.5569 70.7218 80.9201 71.3619 80.2409 71.8717C79.5574 72.3639 78.8712 72.697 78.1823 72.8711C77.5995 73.0184 77.0429 73.0463 76.5124 72.9549C75.9775 72.8458 75.4799 72.6239 75.0195 72.2893C74.5547 71.937 74.1315 71.4521 73.75 70.8345C73.3816 70.1948 73.077 69.3981 72.8359 68.4443C72.586 67.4553 72.4463 66.382 72.4168 65.2244C72.3874 64.0669 72.4484 62.8959 72.6001 61.7114C72.7517 60.5269 73.0138 59.3708 73.3865 58.2432C73.7592 57.1156 74.2227 56.0872 74.7771 55.1579C75.327 54.211 75.97 53.4096 76.7062 52.7538C77.4424 52.098 78.2697 51.6541 79.1881 51.422C79.9829 51.2212 80.6788 51.2238 81.2758 51.4299C81.886 51.614 82.3993 51.9352 82.8158 52.3936C83.2455 52.83 83.6047 53.3592 83.8935 53.9815C84.1823 54.6037 84.4092 55.2416 84.5744 55.8951ZM76.6093 66.758C76.6584 66.9522 76.7451 67.1464 76.8693 67.3405C76.9935 67.5346 77.1375 67.6955 77.3013 67.8232C77.4651 67.9509 77.6509 68.0543 77.8588 68.1333C78.0798 68.1902 78.2963 68.1918 78.5083 68.1383C79.3031 67.9374 79.9404 67.4851 80.4202 66.7814C80.9 66.0776 81.2426 65.2771 81.4479 64.3796C81.6533 63.4822 81.7482 62.5563 81.7325 61.602C81.7344 60.6432 81.6417 59.7929 81.4542 59.0511C81.4007 58.8392 81.325 58.614 81.2272 58.3757C81.147 58.1329 81.036 57.9167 80.8942 57.727C80.77 57.5329 80.6017 57.3876 80.3894 57.2909C80.1902 57.1721 79.9494 57.1484 79.6668 57.2198C79.1016 57.3627 78.6163 57.6356 78.2108 58.0387C77.8054 58.4418 77.4686 58.9309 77.2006 59.506C76.9457 60.0589 76.7529 60.6713 76.622 61.3433C76.4867 61.9975 76.3912 62.6605 76.3355 63.3322C76.2929 63.9818 76.3012 64.6092 76.3602 65.2144C76.4191 65.8195 76.5022 66.3341 76.6093 66.758Z" fill="white"/>
<path d="M85.5907 70.7171C85.7742 68.1717 85.9336 65.6793 86.0687 63.2401C86.128 62.2105 86.1849 61.1345 86.2395 60.0121C86.294 58.8897 86.3508 57.7761 86.4099 56.6714C86.4689 55.5666 86.5104 54.5039 86.5343 53.4832C86.5759 52.4581 86.6 51.5125 86.6066 50.6465C87.578 50.401 88.4831 50.1159 89.3217 49.7912C90.1604 49.4666 91.0719 49.1329 92.0563 48.7902C92.1015 49.1921 92.1513 49.6493 92.2056 50.1617C92.2731 50.6519 92.3297 51.1731 92.3753 51.7253C92.4385 52.273 92.4974 52.8406 92.5519 53.4281C92.6064 54.0156 92.6835 54.7666 92.783 55.6809C92.8825 56.5952 92.9937 57.7415 93.1165 59.1197L93.4609 59.0327C93.6339 57.5609 93.7766 56.3411 93.889 55.3732C93.997 54.3877 94.0855 53.5855 94.1546 52.9668C94.2237 52.348 94.2973 51.7469 94.3754 51.1635C94.4666 50.558 94.5491 49.9922 94.6229 49.4663C94.7098 48.9182 94.7948 48.4363 94.8777 48.0208C95.3103 47.8739 95.7142 47.7249 96.0894 47.5737C96.4645 47.4225 96.8397 47.2713 97.2149 47.1201C97.5856 46.9513 97.9585 46.7913 98.3337 46.6401C98.7221 46.4668 99.1435 46.2758 99.5981 46.0669C99.6803 47.136 99.7781 48.2292 99.8914 49.3468C100.005 50.4643 100.136 51.5774 100.284 52.686C100.428 53.777 100.57 54.8591 100.71 55.9324C100.867 57.0013 101.02 58.0149 101.169 58.9733C101.51 61.2169 101.865 63.4009 102.232 65.5251L97.8302 67.5114C97.8078 67.423 97.7564 67.1824 97.6759 66.7894C97.613 66.3919 97.5278 65.9061 97.4203 65.332C97.3305 64.7534 97.2339 64.1108 97.1304 63.4041C97.0447 62.693 96.9501 61.9841 96.8467 61.2774C96.7609 60.5663 96.6818 59.8816 96.6095 59.2235C96.5326 58.5477 96.4803 57.969 96.4526 57.4875L96.2142 57.5477C96.1544 58.352 96.0792 59.2072 95.9887 60.1131C95.8938 61.0015 95.7945 61.9097 95.6908 62.8378C95.6048 63.7614 95.5143 64.6674 95.4194 65.5558C95.3245 66.4441 95.2559 67.2882 95.2138 68.088C94.6001 68.2619 94.0769 68.4223 93.6443 68.5692C93.2072 68.6984 92.7017 68.8543 92.1278 69.037L90.4917 58.9938L90.0943 59.0943C90.117 59.3328 90.1269 59.7437 90.124 60.3269C90.1166 60.8925 90.105 61.553 90.0892 62.3086C90.0867 63.0421 90.0754 63.8153 90.0554 64.6283C90.0309 65.4237 90.0041 66.1727 89.975 66.8752C89.959 67.5557 89.9428 68.1235 89.9263 68.5786C89.9053 69.0161 89.8927 69.2636 89.8884 69.321L85.5907 70.7171Z" fill="white"/>
<path d="M85.5907 70.7171C85.7742 68.1717 85.9336 65.6793 86.0687 63.2401C86.128 62.2105 86.1849 61.1345 86.2395 60.0121C86.294 58.8897 86.3508 57.7761 86.4099 56.6714C86.4689 55.5666 86.5104 54.5039 86.5343 53.4832C86.5759 52.4581 86.6 51.5125 86.6066 50.6465C87.578 50.401 88.4831 50.1159 89.3217 49.7912C90.1604 49.4666 91.0719 49.1329 92.0563 48.7902C92.1015 49.1921 92.1513 49.6493 92.2056 50.1617C92.2731 50.6519 92.3297 51.1731 92.3753 51.7253C92.4385 52.273 92.4974 52.8406 92.5519 53.4281C92.6064 54.0156 92.6835 54.7666 92.783 55.6809C92.8825 56.5952 92.9937 57.7415 93.1165 59.1197L93.4609 59.0327C93.6339 57.5609 93.7766 56.3411 93.889 55.3732C93.997 54.3877 94.0855 53.5855 94.1546 52.9668C94.2237 52.348 94.2973 51.7469 94.3754 51.1635C94.4666 50.558 94.5491 49.9922 94.6229 49.4663C94.7098 48.9182 94.7948 48.4363 94.8777 48.0208C95.3103 47.8739 95.7142 47.7249 96.0894 47.5737C96.4645 47.4225 96.8397 47.2713 97.2149 47.1201C97.5856 46.9513 97.9585 46.7913 98.3337 46.6401C98.7221 46.4668 99.1435 46.2758 99.5981 46.0669C99.6803 47.136 99.7781 48.2292 99.8914 49.3468C100.005 50.4643 100.136 51.5774 100.284 52.686C100.428 53.777 100.57 54.8591 100.71 55.9324C100.867 57.0013 101.02 58.0149 101.169 58.9733C101.51 61.2169 101.865 63.4009 102.232 65.5251L97.8302 67.5114C97.8078 67.423 97.7564 67.1824 97.6759 66.7894C97.613 66.3919 97.5278 65.9061 97.4203 65.332C97.3305 64.7534 97.2339 64.1108 97.1304 63.4041C97.0447 62.693 96.9501 61.9841 96.8467 61.2774C96.7609 60.5663 96.6818 59.8816 96.6095 59.2235C96.5326 58.5477 96.4803 57.969 96.4526 57.4875L96.2142 57.5477C96.1544 58.352 96.0792 59.2072 95.9887 60.1131C95.8938 61.0015 95.7945 61.9097 95.6908 62.8378C95.6048 63.7614 95.5143 64.6674 95.4194 65.5558C95.3245 66.4441 95.2559 67.2882 95.2138 68.088C94.6001 68.2619 94.0769 68.4223 93.6443 68.5692C93.2072 68.6984 92.7017 68.8543 92.1278 69.037L90.4917 58.9938L90.0943 59.0943C90.117 59.3328 90.1269 59.7437 90.124 60.3269C90.1166 60.8925 90.105 61.553 90.0892 62.3086C90.0867 63.0421 90.0754 63.8153 90.0554 64.6283C90.0309 65.4237 90.0041 66.1727 89.975 66.8752C89.959 67.5557 89.9428 68.1235 89.9263 68.5786C89.9053 69.0161 89.8927 69.2636 89.8884 69.321L85.5907 70.7171Z" fill="white"/>
<path d="M107.198 64.8621C107.039 64.9022 106.728 65.0091 106.265 65.1826C105.814 65.3339 105.351 65.5074 104.874 65.7031C104.393 65.881 103.956 66.0478 103.563 66.2035C103.188 66.3546 102.985 66.4435 102.954 66.4701C102.939 65.666 102.904 64.7824 102.848 63.8194C102.806 62.8342 102.755 61.8137 102.695 60.7579C102.63 59.6844 102.554 58.6043 102.468 57.5176C102.381 56.4309 102.294 55.3818 102.208 54.3702C102.007 52.0158 101.791 49.5995 101.56 47.1214L105.525 45.4147C105.717 47.884 105.907 50.307 106.094 52.6836C106.18 53.6951 106.267 54.7443 106.354 55.831C106.458 56.9132 106.551 57.9888 106.634 59.0578C106.733 60.1224 106.835 61.1582 106.94 62.1653C107.039 63.1548 107.126 64.0537 107.198 64.8621Z" fill="white"/>
<path d="M107.198 64.8621C107.039 64.9022 106.728 65.0091 106.265 65.1826C105.814 65.3339 105.351 65.5074 104.874 65.7031C104.393 65.881 103.956 66.0478 103.563 66.2035C103.188 66.3546 102.985 66.4435 102.954 66.4701C102.939 65.666 102.904 64.7824 102.848 63.8194C102.806 62.8342 102.755 61.8137 102.695 60.7579C102.63 59.6844 102.554 58.6043 102.468 57.5176C102.381 56.4309 102.294 55.3818 102.208 54.3702C102.007 52.0158 101.791 49.5995 101.56 47.1214L105.525 45.4147C105.717 47.884 105.907 50.307 106.094 52.6836C106.18 53.6951 106.267 54.7443 106.354 55.831C106.458 56.9132 106.551 57.9888 106.634 59.0578C106.733 60.1224 106.835 61.1582 106.94 62.1653C107.039 63.1548 107.126 64.0537 107.198 64.8621Z" fill="white"/>
<path d="M108.35 65.2757C108.237 62.5985 108.118 60.0074 107.992 57.5026C107.91 56.4335 107.828 55.3269 107.745 54.1828C107.68 53.0342 107.602 51.9077 107.511 50.8034C107.416 49.6814 107.316 48.6168 107.211 47.6097C107.103 46.5849 106.983 45.6662 106.853 44.8536C107.087 44.8132 107.284 44.773 107.443 44.7328C107.602 44.6926 107.787 44.6458 107.999 44.5922C108.246 44.5297 108.547 44.4538 108.9 44.3646C109.249 44.2576 109.597 44.1507 109.946 44.0438C110.295 43.9368 110.67 43.8232 111.072 43.7029C111.632 44.8768 112.154 46.0131 112.638 47.1121C113.087 48.0697 113.542 49.0538 114.004 50.0645C114.484 51.0706 114.897 51.9245 115.243 52.6261C115.225 52.255 115.202 51.8287 115.174 51.3472C115.142 50.848 115.114 50.3289 115.09 49.79C115.067 49.251 115.035 48.7142 114.994 48.1797C114.966 47.6231 114.94 47.0753 114.916 46.5363C114.874 45.3258 114.831 44.0777 114.788 42.7921L117.919 41.5779C118.002 44.432 118.119 47.1268 118.271 49.6626C118.323 50.7582 118.379 51.8714 118.439 53.0024C118.512 54.1112 118.586 55.1825 118.659 56.2162C118.728 57.2322 118.808 58.1797 118.898 59.0587C118.984 59.9201 119.064 60.6423 119.136 61.2253C119.083 61.2387 118.882 61.3364 118.533 61.5185C118.198 61.6784 117.805 61.8716 117.355 62.0981C116.923 62.3201 116.482 62.5443 116.031 62.7708C115.599 62.9928 115.279 63.177 115.072 63.3233C114.609 61.9372 114.155 60.6239 113.71 59.3835C113.518 58.8493 113.316 58.3086 113.103 57.7613C112.902 57.1918 112.7 56.6511 112.495 56.1391C112.291 55.6271 112.095 55.1504 111.908 54.709C111.722 54.2677 111.551 53.8881 111.395 53.5704C111.427 53.9194 111.455 54.3258 111.478 54.7897C111.501 55.2535 111.531 55.7439 111.568 56.2607C111.604 56.7776 111.648 57.3209 111.698 57.8908C111.743 58.4429 111.776 58.9797 111.795 59.501C111.864 60.7424 111.929 62.0412 111.99 63.3975L108.35 65.2757Z" fill="white"/>
<path d="M108.35 65.2757C108.237 62.5985 108.118 60.0074 107.992 57.5026C107.91 56.4335 107.828 55.3269 107.745 54.1828C107.68 53.0342 107.602 51.9077 107.511 50.8034C107.416 49.6814 107.316 48.6168 107.211 47.6097C107.103 46.5849 106.983 45.6662 106.853 44.8536C107.087 44.8132 107.284 44.773 107.443 44.7328C107.602 44.6926 107.787 44.6458 107.999 44.5922C108.246 44.5297 108.547 44.4538 108.9 44.3646C109.249 44.2576 109.597 44.1507 109.946 44.0438C110.295 43.9368 110.67 43.8232 111.072 43.7029C111.632 44.8768 112.154 46.0131 112.638 47.1121C113.087 48.0697 113.542 49.0538 114.004 50.0645C114.484 51.0706 114.897 51.9245 115.243 52.6261C115.225 52.255 115.202 51.8287 115.174 51.3472C115.142 50.848 115.114 50.3289 115.09 49.79C115.067 49.251 115.035 48.7142 114.994 48.1797C114.966 47.6231 114.94 47.0753 114.916 46.5363C114.874 45.3258 114.831 44.0777 114.788 42.7921L117.919 41.5779C118.002 44.432 118.119 47.1268 118.271 49.6626C118.323 50.7582 118.379 51.8714 118.439 53.0024C118.512 54.1112 118.586 55.1825 118.659 56.2162C118.728 57.2322 118.808 58.1797 118.898 59.0587C118.984 59.9201 119.064 60.6423 119.136 61.2253C119.083 61.2387 118.882 61.3364 118.533 61.5185C118.198 61.6784 117.805 61.8716 117.355 62.0981C116.923 62.3201 116.482 62.5443 116.031 62.7708C115.599 62.9928 115.279 63.177 115.072 63.3233C114.609 61.9372 114.155 60.6239 113.71 59.3835C113.518 58.8493 113.316 58.3086 113.103 57.7613C112.902 57.1918 112.7 56.6511 112.495 56.1391C112.291 55.6271 112.095 55.1504 111.908 54.709C111.722 54.2677 111.551 53.8881 111.395 53.5704C111.427 53.9194 111.455 54.3258 111.478 54.7897C111.501 55.2535 111.531 55.7439 111.568 56.2607C111.604 56.7776 111.648 57.3209 111.698 57.8908C111.743 58.4429 111.776 58.9797 111.795 59.501C111.864 60.7424 111.929 62.0412 111.99 63.3975L108.35 65.2757Z" fill="white"/>
<path d="M132.024 48.4137C132.356 50.2465 132.4 51.9076 132.156 53.3972C131.908 54.8692 131.483 56.1604 130.88 57.2709C130.295 58.377 129.582 59.2713 128.74 59.9539C127.915 60.632 127.079 61.0782 126.231 61.2924C125.578 61.4576 124.915 61.4747 124.243 61.3439C123.589 61.2086 122.97 60.9141 122.385 60.4605C121.814 59.9848 121.296 59.3455 120.83 58.5425C120.364 57.7396 119.983 56.7553 119.689 55.5896C119.113 53.3112 118.938 51.2416 119.163 49.381C119.388 47.5203 119.852 45.8998 120.555 44.5195C121.276 43.1347 122.133 42.0257 123.125 41.1925C124.135 40.3549 125.134 39.8111 126.123 39.5612C126.829 39.3826 127.47 39.3523 128.045 39.4701C128.637 39.5835 129.155 39.8097 129.597 40.1488C130.035 40.4702 130.397 40.8957 130.681 41.4251C130.978 41.9325 131.205 42.4952 131.361 43.1134L127.906 44.7194C127.568 44.0531 127.229 43.6033 126.888 43.37C126.547 43.1367 126.209 43.0625 125.874 43.1473C125.432 43.2589 125.027 43.6995 124.658 44.4692C124.284 45.2213 123.992 46.1499 123.783 47.255C123.574 48.3601 123.46 49.5445 123.441 50.8082C123.422 52.0719 123.54 53.2822 123.795 54.4392C124.072 55.5342 124.429 56.28 124.868 56.6765C125.319 57.0509 125.801 57.1734 126.313 57.044C126.667 56.9547 127.006 56.7749 127.333 56.5046C127.676 56.2298 127.958 55.8955 128.178 55.5017C128.394 55.0902 128.545 54.648 128.632 54.175C128.733 53.6799 128.727 53.174 128.615 52.6574L125.887 53.7976L125.728 51.0476C126.531 50.7319 127.317 50.4206 128.085 50.1138C128.734 49.8558 129.414 49.5713 130.124 49.2602C130.852 48.9447 131.486 48.6625 132.024 48.4137Z" fill="white"/>
<path d="M132.024 48.4137C132.356 50.2465 132.4 51.9076 132.156 53.3972C131.908 54.8692 131.483 56.1604 130.88 57.2709C130.295 58.377 129.582 59.2713 128.74 59.9539C127.915 60.632 127.079 61.0782 126.231 61.2924C125.578 61.4576 124.915 61.4747 124.243 61.3439C123.589 61.2086 122.97 60.9141 122.385 60.4605C121.814 59.9848 121.296 59.3455 120.83 58.5425C120.364 57.7396 119.983 56.7553 119.689 55.5896C119.113 53.3112 118.938 51.2416 119.163 49.381C119.388 47.5203 119.852 45.8998 120.555 44.5195C121.276 43.1347 122.133 42.0257 123.125 41.1925C124.135 40.3549 125.134 39.8111 126.123 39.5612C126.829 39.3826 127.47 39.3523 128.045 39.4701C128.637 39.5835 129.155 39.8097 129.597 40.1488C130.035 40.4702 130.397 40.8957 130.681 41.4251C130.978 41.9325 131.205 42.4952 131.361 43.1134L127.906 44.7194C127.568 44.0531 127.229 43.6033 126.888 43.37C126.547 43.1367 126.209 43.0625 125.874 43.1473C125.432 43.2589 125.027 43.6995 124.658 44.4692C124.284 45.2213 123.992 46.1499 123.783 47.255C123.574 48.3601 123.46 49.5445 123.441 50.8082C123.422 52.0719 123.54 53.2822 123.795 54.4392C124.072 55.5342 124.429 56.28 124.868 56.6765C125.319 57.0509 125.801 57.1734 126.313 57.044C126.667 56.9547 127.006 56.7749 127.333 56.5046C127.676 56.2298 127.958 55.8955 128.178 55.5017C128.394 55.0902 128.545 54.648 128.632 54.175C128.733 53.6799 128.727 53.174 128.615 52.6574L125.887 53.7976L125.728 51.0476C126.531 50.7319 127.317 50.4206 128.085 50.1138C128.734 49.8558 129.414 49.5713 130.124 49.2602C130.852 48.9447 131.486 48.6625 132.024 48.4137Z" fill="white"/>
<path d="M148.64 47.9914C148.89 48.9804 148.924 49.9303 148.74 50.8409C148.57 51.7295 148.232 52.5477 147.726 53.2957C147.238 54.0392 146.592 54.6815 145.789 55.2226C145.004 55.7592 144.108 56.1547 143.101 56.4091C142.395 56.5877 141.642 56.5808 140.841 56.3884C140.037 56.1784 139.203 55.7409 138.339 55.0759L139.329 50.739C139.511 50.9374 139.756 51.1289 140.066 51.3137C140.372 51.4808 140.697 51.6148 141.042 51.7155C141.404 51.8118 141.751 51.8838 142.083 51.9316C142.427 51.9572 142.723 51.9388 142.971 51.8763C143.182 51.8227 143.394 51.7316 143.606 51.6029C143.818 51.4743 144.003 51.3147 144.162 51.1243C144.32 50.9339 144.43 50.7371 144.491 50.5337C144.566 50.3081 144.572 50.0717 144.51 49.8245C144.402 49.4006 144.163 49.0477 143.791 48.7659C143.432 48.4619 143.01 48.2023 142.523 47.9871C142.032 47.7542 141.506 47.5302 140.944 47.3151C140.382 47.1 139.852 46.8584 139.352 46.5901C138.869 46.3174 138.429 45.9872 138.03 45.5994C137.632 45.2116 137.361 44.7351 137.218 44.1699C136.986 43.2515 137.043 42.3257 137.39 41.3926C137.737 40.4594 138.245 39.6076 138.914 38.8371C139.597 38.0445 140.382 37.3576 141.269 36.7766C142.155 36.1955 143.031 35.7956 143.897 35.5769C144.373 35.4564 144.839 35.4044 145.295 35.4209C145.745 35.4198 146.154 35.5137 146.521 35.7028C146.902 35.8697 147.229 36.1251 147.504 36.4691C147.797 36.8085 148.017 37.2697 148.164 37.8525C148.226 38.0998 148.262 38.3538 148.272 38.6144C148.299 38.8706 148.331 39.1445 148.367 39.436L144.806 41.5195C144.806 41.3692 144.797 41.2213 144.779 41.0755C144.778 40.9253 144.76 40.7795 144.725 40.6382C144.591 40.1084 144.398 39.7532 144.145 39.5727C143.906 39.37 143.637 39.3067 143.336 39.3825C143.195 39.4182 143.032 39.5159 142.847 39.6754C142.679 39.8305 142.512 40.0231 142.344 40.2533C142.19 40.4613 142.072 40.698 141.988 40.9633C141.905 41.2286 141.897 41.4937 141.964 41.7587C142.071 42.1826 142.275 42.5068 142.576 42.7314C142.895 42.9515 143.262 43.1405 143.678 43.2985C144.093 43.4565 144.538 43.6166 145.011 43.7789C145.497 43.9191 145.969 44.1476 146.424 44.4646C146.88 44.7815 147.301 45.2201 147.687 45.7802C148.086 46.3182 148.404 47.0553 148.64 47.9914Z" fill="white"/>
<path d="M148.64 47.9914C148.89 48.9804 148.924 49.9303 148.74 50.8409C148.57 51.7295 148.232 52.5477 147.726 53.2957C147.238 54.0392 146.592 54.6815 145.789 55.2226C145.004 55.7592 144.108 56.1547 143.101 56.4091C142.395 56.5877 141.642 56.5808 140.841 56.3884C140.037 56.1784 139.203 55.7409 138.339 55.0759L139.329 50.739C139.511 50.9374 139.756 51.1289 140.066 51.3137C140.372 51.4808 140.697 51.6148 141.042 51.7155C141.404 51.8118 141.751 51.8838 142.083 51.9316C142.427 51.9572 142.723 51.9388 142.971 51.8763C143.182 51.8227 143.394 51.7316 143.606 51.6029C143.818 51.4743 144.003 51.3147 144.162 51.1243C144.32 50.9339 144.43 50.7371 144.491 50.5337C144.566 50.3081 144.572 50.0717 144.51 49.8245C144.402 49.4006 144.163 49.0477 143.791 48.7659C143.432 48.4619 143.01 48.2023 142.523 47.9871C142.032 47.7542 141.506 47.5302 140.944 47.3151C140.382 47.1 139.852 46.8584 139.352 46.5901C138.869 46.3174 138.429 45.9872 138.03 45.5994C137.632 45.2116 137.361 44.7351 137.218 44.1699C136.986 43.2515 137.043 42.3257 137.39 41.3926C137.737 40.4594 138.245 39.6076 138.914 38.8371C139.597 38.0445 140.382 37.3576 141.269 36.7766C142.155 36.1955 143.031 35.7956 143.897 35.5769C144.373 35.4564 144.839 35.4044 145.295 35.4209C145.745 35.4198 146.154 35.5137 146.521 35.7028C146.902 35.8697 147.229 36.1251 147.504 36.4691C147.797 36.8085 148.017 37.2697 148.164 37.8525C148.226 38.0998 148.262 38.3538 148.272 38.6144C148.299 38.8706 148.331 39.1445 148.367 39.436L144.806 41.5195C144.806 41.3692 144.797 41.2213 144.779 41.0755C144.778 40.9253 144.76 40.7795 144.725 40.6382C144.591 40.1084 144.398 39.7532 144.145 39.5727C143.906 39.37 143.637 39.3067 143.336 39.3825C143.195 39.4182 143.032 39.5159 142.847 39.6754C142.679 39.8305 142.512 40.0231 142.344 40.2533C142.19 40.4613 142.072 40.698 141.988 40.9633C141.905 41.2286 141.897 41.4937 141.964 41.7587C142.071 42.1826 142.275 42.5068 142.576 42.7314C142.895 42.9515 143.262 43.1405 143.678 43.2985C144.093 43.4565 144.538 43.6166 145.011 43.7789C145.497 43.9191 145.969 44.1476 146.424 44.4646C146.88 44.7815 147.301 45.2201 147.687 45.7802C148.086 46.3182 148.404 47.0553 148.64 47.9914Z" fill="white"/>
<path d="M161.155 36.5424C161.521 37.9907 161.708 39.3997 161.716 40.7693C161.737 42.1169 161.628 43.394 161.388 44.6008C161.144 45.79 160.784 46.8955 160.31 47.9173C159.848 48.917 159.322 49.8109 158.732 50.5989C158.138 51.3692 157.501 52.0092 156.822 52.5191C156.138 53.0112 155.452 53.3444 154.763 53.5184C154.181 53.6657 153.624 53.6937 153.093 53.6022C152.559 53.4931 152.061 53.2713 151.601 52.9366C151.136 52.5844 150.713 52.0994 150.331 51.4818C149.963 50.8421 149.658 50.0454 149.417 49.0916C149.167 48.1026 149.027 47.0293 148.998 45.8717C148.968 44.7142 149.029 43.5432 149.181 42.3587C149.333 41.1742 149.595 40.0182 149.968 38.8905C150.34 37.7629 150.804 36.7345 151.358 35.8052C151.908 34.8583 152.551 34.0569 153.287 33.4011C154.023 32.7454 154.851 32.3014 155.769 32.0693C156.564 31.8685 157.26 31.8711 157.857 32.0773C158.467 32.2613 158.98 32.5825 159.397 33.0409C159.826 33.4773 160.186 34.0066 160.475 34.6288C160.763 35.251 160.99 35.8889 161.155 36.5424ZM153.19 47.4053C153.239 47.5996 153.326 47.7937 153.45 47.9878C153.574 48.1819 153.718 48.3428 153.882 48.4705C154.046 48.5982 154.232 48.7016 154.44 48.7806C154.661 48.8375 154.877 48.8391 155.089 48.7856C155.884 48.5847 156.521 48.1324 157.001 47.4287C157.481 46.725 157.824 45.9244 158.029 45.0269C158.234 44.1295 158.329 43.2036 158.313 42.2493C158.315 41.2905 158.223 40.4402 158.035 39.6984C157.982 39.4865 157.906 39.2613 157.808 39.023C157.728 38.7802 157.617 38.564 157.475 38.3743C157.351 38.1803 157.183 38.0349 156.97 37.9382C156.771 37.8194 156.53 37.7957 156.248 37.8672C155.683 38.01 155.197 38.2829 154.792 38.686C154.386 39.0891 154.05 39.5782 153.782 40.1533C153.527 40.7062 153.334 41.3187 153.203 41.9906C153.068 42.6448 152.972 43.3078 152.916 43.9796C152.874 44.6292 152.882 45.2565 152.941 45.8617C153 46.4669 153.083 46.9814 153.19 47.4053Z" fill="white"/>
<path d="M161.155 36.5424C161.521 37.9907 161.708 39.3997 161.716 40.7693C161.737 42.1169 161.628 43.394 161.388 44.6008C161.144 45.79 160.784 46.8955 160.31 47.9173C159.848 48.917 159.322 49.8109 158.732 50.5989C158.138 51.3692 157.501 52.0092 156.822 52.5191C156.138 53.0112 155.452 53.3444 154.763 53.5184C154.181 53.6657 153.624 53.6937 153.093 53.6022C152.559 53.4931 152.061 53.2713 151.601 52.9366C151.136 52.5844 150.713 52.0994 150.331 51.4818C149.963 50.8421 149.658 50.0454 149.417 49.0916C149.167 48.1026 149.027 47.0293 148.998 45.8717C148.968 44.7142 149.029 43.5432 149.181 42.3587C149.333 41.1742 149.595 40.0182 149.968 38.8905C150.34 37.7629 150.804 36.7345 151.358 35.8052C151.908 34.8583 152.551 34.0569 153.287 33.4011C154.023 32.7454 154.851 32.3014 155.769 32.0693C156.564 31.8685 157.26 31.8711 157.857 32.0773C158.467 32.2613 158.98 32.5825 159.397 33.0409C159.826 33.4773 160.186 34.0066 160.475 34.6288C160.763 35.251 160.99 35.8889 161.155 36.5424ZM153.19 47.4053C153.239 47.5996 153.326 47.7937 153.45 47.9878C153.574 48.1819 153.718 48.3428 153.882 48.4705C154.046 48.5982 154.232 48.7016 154.44 48.7806C154.661 48.8375 154.877 48.8391 155.089 48.7856C155.884 48.5847 156.521 48.1324 157.001 47.4287C157.481 46.725 157.824 45.9244 158.029 45.0269C158.234 44.1295 158.329 43.2036 158.313 42.2493C158.315 41.2905 158.223 40.4402 158.035 39.6984C157.982 39.4865 157.906 39.2613 157.808 39.023C157.728 38.7802 157.617 38.564 157.475 38.3743C157.351 38.1803 157.183 38.0349 156.97 37.9382C156.771 37.8194 156.53 37.7957 156.248 37.8672C155.683 38.01 155.197 38.2829 154.792 38.686C154.386 39.0891 154.05 39.5782 153.782 40.1533C153.527 40.7062 153.334 41.3187 153.203 41.9906C153.068 42.6448 152.972 43.3078 152.916 43.9796C152.874 44.6292 152.882 45.2565 152.941 45.8617C153 46.4669 153.083 46.9814 153.19 47.4053Z" fill="white"/>
<path d="M174.221 33.2407C174.587 34.689 174.774 36.0979 174.782 37.4676C174.803 38.8151 174.693 40.0923 174.453 41.2991C174.209 42.4883 173.849 43.5938 173.375 44.6156C172.914 45.6153 172.388 46.5092 171.798 47.2971C171.203 48.0674 170.566 48.7075 169.887 49.2173C169.204 49.7095 168.518 50.0426 167.829 50.2167C167.246 50.364 166.689 50.3919 166.159 50.3005C165.624 50.1914 165.126 49.9695 164.666 49.6349C164.201 49.2826 163.778 48.7977 163.396 48.1801C163.028 47.5404 162.723 46.7437 162.482 45.7899C162.232 44.8008 162.093 43.7275 162.063 42.57C162.034 41.4125 162.095 40.2415 162.246 39.057C162.398 37.8725 162.66 36.7164 163.033 35.5888C163.406 34.4612 163.869 33.4327 164.423 32.5035C164.973 31.5566 165.616 30.7552 166.353 30.0994C167.089 29.4436 167.916 28.9997 168.834 28.7676C169.629 28.5667 170.325 28.5694 170.922 28.7755C171.532 28.9595 172.046 29.2808 172.462 29.7392C172.892 30.1755 173.251 30.7048 173.54 31.3271C173.829 31.9493 174.056 32.5872 174.221 33.2407ZM166.256 44.1035C166.305 44.2978 166.391 44.492 166.516 44.6861C166.64 44.8802 166.784 45.0411 166.948 45.1688C167.111 45.2965 167.297 45.3999 167.505 45.4789C167.726 45.5358 167.943 45.5374 168.155 45.4839C168.949 45.283 169.587 44.8307 170.067 44.127C170.546 43.4232 170.889 42.6226 171.094 41.7252C171.3 40.8278 171.395 39.9019 171.379 38.9476C171.381 37.9888 171.288 37.1385 171.101 36.3967C171.047 36.1847 170.971 35.9596 170.874 35.7213C170.793 35.4785 170.682 35.2622 170.541 35.0726C170.416 34.8785 170.248 34.7332 170.036 34.6365C169.837 34.5177 169.596 34.494 169.313 34.5654C168.748 34.7083 168.263 34.9812 167.857 35.3843C167.452 35.7874 167.115 36.2765 166.847 36.8516C166.592 37.4045 166.399 38.0169 166.268 38.6889C166.133 39.3431 166.038 40.0061 165.982 40.6778C165.939 41.3274 165.948 41.9548 166.007 42.56C166.065 43.1651 166.149 43.6797 166.256 44.1035Z" fill="white"/>
<path d="M174.221 33.2407C174.587 34.689 174.774 36.0979 174.782 37.4676C174.803 38.8151 174.693 40.0923 174.453 41.2991C174.209 42.4883 173.849 43.5938 173.375 44.6156C172.914 45.6153 172.388 46.5092 171.798 47.2971C171.203 48.0674 170.566 48.7075 169.887 49.2173C169.204 49.7095 168.518 50.0426 167.829 50.2167C167.246 50.364 166.689 50.3919 166.159 50.3005C165.624 50.1914 165.126 49.9695 164.666 49.6349C164.201 49.2826 163.778 48.7977 163.396 48.1801C163.028 47.5404 162.723 46.7437 162.482 45.7899C162.232 44.8008 162.093 43.7275 162.063 42.57C162.034 41.4125 162.095 40.2415 162.246 39.057C162.398 37.8725 162.66 36.7164 163.033 35.5888C163.406 34.4612 163.869 33.4327 164.423 32.5035C164.973 31.5566 165.616 30.7552 166.353 30.0994C167.089 29.4436 167.916 28.9997 168.834 28.7676C169.629 28.5667 170.325 28.5694 170.922 28.7755C171.532 28.9595 172.046 29.2808 172.462 29.7392C172.892 30.1755 173.251 30.7048 173.54 31.3271C173.829 31.9493 174.056 32.5872 174.221 33.2407ZM166.256 44.1035C166.305 44.2978 166.391 44.492 166.516 44.6861C166.64 44.8802 166.784 45.0411 166.948 45.1688C167.111 45.2965 167.297 45.3999 167.505 45.4789C167.726 45.5358 167.943 45.5374 168.155 45.4839C168.949 45.283 169.587 44.8307 170.067 44.127C170.546 43.4232 170.889 42.6226 171.094 41.7252C171.3 40.8278 171.395 39.9019 171.379 38.9476C171.381 37.9888 171.288 37.1385 171.101 36.3967C171.047 36.1847 170.971 35.9596 170.874 35.7213C170.793 35.4785 170.682 35.2622 170.541 35.0726C170.416 34.8785 170.248 34.7332 170.036 34.6365C169.837 34.5177 169.596 34.494 169.313 34.5654C168.748 34.7083 168.263 34.9812 167.857 35.3843C167.452 35.7874 167.115 36.2765 166.847 36.8516C166.592 37.4045 166.399 38.0169 166.268 38.6889C166.133 39.3431 166.038 40.0061 165.982 40.6778C165.939 41.3274 165.948 41.9548 166.007 42.56C166.065 43.1651 166.149 43.6797 166.256 44.1035Z" fill="white"/>
<path d="M176.238 48.1198C176.125 45.4426 176.006 42.8515 175.88 40.3467C175.798 39.2776 175.716 38.1711 175.633 37.0269C175.568 35.8783 175.49 34.7518 175.399 33.6475C175.304 32.5255 175.204 31.4609 175.099 30.4538C174.991 29.429 174.871 28.5103 174.741 27.6977C174.975 27.6573 175.172 27.6171 175.331 27.5769C175.49 27.5367 175.675 27.4899 175.887 27.4363C176.134 27.3738 176.435 27.2979 176.788 27.2087C177.137 27.1017 177.485 26.9948 177.834 26.8879C178.183 26.781 178.558 26.6673 178.96 26.547C179.52 27.7209 180.042 28.8573 180.526 29.9562C180.975 30.9138 181.43 31.8979 181.892 32.9086C182.372 33.9147 182.785 34.7686 183.131 35.4702C183.113 35.0991 183.09 34.6728 183.062 34.1913C183.03 33.6921 183.002 33.173 182.978 32.6341C182.955 32.0951 182.923 31.5583 182.882 31.0238C182.854 30.4672 182.828 29.9194 182.804 29.3804C182.762 28.1699 182.719 26.9218 182.676 25.6362L185.807 24.422C185.89 27.2761 186.007 29.9709 186.159 32.5067C186.211 33.6023 186.267 34.7156 186.327 35.8465C186.4 36.9553 186.474 38.0266 186.547 39.0603C186.616 40.0763 186.696 41.0238 186.786 41.9028C186.872 42.7642 186.952 43.4864 187.024 44.0694C186.971 44.0828 186.77 44.1805 186.421 44.3626C186.086 44.5225 185.693 44.7157 185.243 44.9422C184.811 45.1642 184.37 45.3884 183.919 45.6149C183.487 45.8369 183.167 46.0211 182.96 46.1674C182.497 44.7813 182.043 43.468 181.598 42.2276C181.407 41.6934 181.204 41.1527 180.991 40.6054C180.79 40.0359 180.588 39.4952 180.383 38.9832C180.179 38.4712 179.983 37.9945 179.797 37.5531C179.61 37.1118 179.439 36.7322 179.283 36.4145C179.315 36.7635 179.343 37.1699 179.366 37.6338C179.389 38.0976 179.419 38.588 179.456 39.1048C179.493 39.6217 179.536 40.165 179.586 40.7349C179.632 41.287 179.664 41.8238 179.683 42.3451C179.752 43.5865 179.817 44.8853 179.878 46.2416L176.238 48.1198Z" fill="white"/>
<path d="M176.238 48.1198C176.125 45.4426 176.006 42.8515 175.88 40.3467C175.798 39.2776 175.716 38.1711 175.633 37.0269C175.568 35.8783 175.49 34.7518 175.399 33.6475C175.304 32.5255 175.204 31.4609 175.099 30.4538C174.991 29.429 174.871 28.5103 174.741 27.6977C174.975 27.6573 175.172 27.6171 175.331 27.5769C175.49 27.5367 175.675 27.4899 175.887 27.4363C176.134 27.3738 176.435 27.2979 176.788 27.2087C177.137 27.1017 177.485 26.9948 177.834 26.8879C178.183 26.781 178.558 26.6673 178.96 26.547C179.52 27.7209 180.042 28.8573 180.526 29.9562C180.975 30.9138 181.43 31.8979 181.892 32.9086C182.372 33.9147 182.785 34.7686 183.131 35.4702C183.113 35.0991 183.09 34.6728 183.062 34.1913C183.03 33.6921 183.002 33.173 182.978 32.6341C182.955 32.0951 182.923 31.5583 182.882 31.0238C182.854 30.4672 182.828 29.9194 182.804 29.3804C182.762 28.1699 182.719 26.9218 182.676 25.6362L185.807 24.422C185.89 27.2761 186.007 29.9709 186.159 32.5067C186.211 33.6023 186.267 34.7156 186.327 35.8465C186.4 36.9553 186.474 38.0266 186.547 39.0603C186.616 40.0763 186.696 41.0238 186.786 41.9028C186.872 42.7642 186.952 43.4864 187.024 44.0694C186.971 44.0828 186.77 44.1805 186.421 44.3626C186.086 44.5225 185.693 44.7157 185.243 44.9422C184.811 45.1642 184.37 45.3884 183.919 45.6149C183.487 45.8369 183.167 46.0211 182.96 46.1674C182.497 44.7813 182.043 43.468 181.598 42.2276C181.407 41.6934 181.204 41.1527 180.991 40.6054C180.79 40.0359 180.588 39.4952 180.383 38.9832C180.179 38.4712 179.983 37.9945 179.797 37.5531C179.61 37.1118 179.439 36.7322 179.283 36.4145C179.315 36.7635 179.343 37.1699 179.366 37.6338C179.389 38.0976 179.419 38.588 179.456 39.1048C179.493 39.6217 179.536 40.165 179.586 40.7349C179.632 41.287 179.664 41.8238 179.683 42.3451C179.752 43.5865 179.817 44.8853 179.878 46.2416L176.238 48.1198Z" fill="white"/>
</svg>
