<?xml version="1.0" encoding="utf-8"?>
<!-- Generator: Adobe Illustrator 26.5.0, SVG Export Plug-In . SVG Version: 6.00 Build 0)  -->
<svg version="1.1" id="Layer_1" xmlns="http://www.w3.org/2000/svg" xmlns:xlink="http://www.w3.org/1999/xlink" x="0px" y="0px"
	 viewBox="0 0 22 22" style="enable-background:new 0 0 22 22;" xml:space="preserve">
<path d="M20,0H2C0.9,0,0,0.9,0,2v18c0,1.1,0.9,2,2,2h10v-9H9v-3h3V8.4C12,5.3,13.5,4,16,4c1.2,0,1.9,0.1,2.2,0.1V7h-1.7
	C15.4,7,15,7.6,15,8.7V10h3.2l-0.4,3H15v9h5c1.1,0,2-0.9,2-2V2C22,0.9,21.1,0,20,0z"/>
</svg>
