<svg xmlns="http://www.w3.org/2000/svg" width="31" height="32" viewBox="0 0 31 32"><g><g><path fill="#fff" d="M15.425 29.457c-1.897 0-3.702-.392-5.34-1.098l7.024-7.902a.964.964 0 0 0 .244-.64v-2.892a.964.964 0 0 0-.964-.964c-3.404 0-6.996-3.539-7.03-3.574a.964.964 0 0 0-.682-.282H4.82a.964.964 0 0 0-.964.964v5.784c0 .365.207.699.533.862l3.324 1.662v5.66a13.48 13.48 0 0 1-5.785-11.076c0-2.07.467-4.031 1.3-5.784h3.52c.256 0 .501-.102.682-.282l3.856-3.857a.964.964 0 0 0 .283-.681V3.025a13.495 13.495 0 0 1 3.856-.56c2.12 0 4.127.49 5.913 1.361a5.746 5.746 0 0 0-2.057 4.422c0 1.546.601 2.998 1.694 4.09a5.77 5.77 0 0 0 4.373 1.689c.416 1.56 1.167 5.623-.254 11.216a.961.961 0 0 0-.025.158 13.454 13.454 0 0 1-9.644 4.056zm0-28.92C6.906.537 0 7.442 0 15.96c0 8.519 6.906 15.424 15.425 15.424 8.518 0 15.424-6.905 15.424-15.424 0-8.519-6.906-15.424-15.424-15.424z"/></g></g></svg>