<svg xmlns="http://www.w3.org/2000/svg" width="19" height="19" viewBox="0 0 19 19"><g><g><path fill="#fff" d="M16.912 9.5c0-1.352.112-4.254-.373-5.477a3.136 3.136 0 0 0-1.767-1.767c-1.219-.48-4.125-.373-5.477-.373-1.352 0-4.254-.112-5.477.373A3.136 3.136 0 0 0 2.05 4.023c-.48 1.219-.373 4.125-.373 5.477 0 1.352-.112 4.254.373 5.477a3.136 3.136 0 0 0 1.767 1.767c1.219.48 4.125.373 5.477.373 1.352 0 4.254.112 5.477-.373a3.136 3.136 0 0 0 1.767-1.767c.485-1.219.373-4.125.373-5.477zm1.609-3.831c.087 1.534.087 6.128 0 7.662-.075 1.489-.415 2.807-1.501 3.894-1.087 1.09-2.405 1.43-3.894 1.5-1.534.088-6.132.088-7.666 0-1.489-.074-2.803-.414-3.894-1.5-1.09-1.087-1.43-2.405-1.5-3.894-.088-1.534-.088-6.132 0-7.666.074-1.489.41-2.808 1.5-3.894C2.656.685 3.976.345 5.46.274c1.534-.087 6.132-.087 7.666 0 1.489.075 2.807.415 3.894 1.501 1.09 1.087 1.43 2.405 1.5 3.894zM15.365 4.54c0 .618-.497 1.111-1.11 1.111a1.111 1.111 0 1 1 1.111-1.111zM12.392 9.5a3.1 3.1 0 0 0-3.097-3.097A3.1 3.1 0 0 0 6.198 9.5a3.103 3.103 0 0 0 3.097 3.097A3.103 3.103 0 0 0 12.392 9.5zm1.667 0a4.757 4.757 0 0 1-4.764 4.764A4.757 4.757 0 0 1 4.531 9.5a4.757 4.757 0 0 1 4.764-4.764A4.757 4.757 0 0 1 14.06 9.5z"/></g></g></svg>