<svg xmlns="http://www.w3.org/2000/svg" width="14" height="14" viewBox="0 0 14 14"><defs><clipPath id="zjo6a"><path fill="#fff" d="M0 14V0h14v14z"/></clipPath></defs><g><g opacity=".5"><g opacity=".5"><g opacity=".5"><path d="M3.68 3.618c.088.005.176.017.264.016.352-.003.704-.008 1.055-.017.074-.002.116.027.154.086.517.795 1.035 1.59 1.554 2.384.317.486.633.973.954 1.456.062.092.065.164.004.258-.2.31-.39.624-.585.936-.021.035-.044.069-.072.113L5.19 6.165l-.019.006v4.212H3.68z"/></g><g opacity=".5"><path fill="#0e0e0e" d="M10.32 10.383H8.846V5.934l-.027-.01-.332.528-.315-.481c-.128-.197-.253-.396-.385-.59-.044-.066-.042-.117-.001-.182.31-.494.62-.989.927-1.485a.175.175 0 0 1 .165-.09l1.37.02c.022 0 .044.003.072.005z"/></g></g><g opacity=".5"><path fill="none" stroke="#000" stroke-miterlimit="20" d="M0 14v0V0v0h14v14z" clip-path="url(&quot;#zjo6a&quot;)"/></g></g></g></svg>