<svg xmlns="http://www.w3.org/2000/svg" width="38" height="38" viewBox="0 0 38 38"><defs><clipPath id="e136a"><path fill="#fff" d="M0 38V0h38v38z"/></clipPath></defs><g><g><g><path fill="#0e0e0e" d="M9.157 9.59c.251.016.503.048.754.046a180.53 180.53 0 0 0 3.01-.048c.21-.005.33.077.44.244 1.474 2.27 2.952 4.535 4.43 6.801.905 1.387 1.807 2.776 2.725 4.154.176.264.182.468.009.737-.57.882-1.114 1.78-1.668 2.67-.06.1-.125.196-.206.323l-5.184-7.66-.053.016v12.015H9.157z"/></g><g><path fill="#fff" d="M28.1 28.89h-4.204V16.197l-.077-.027-.947 1.505c-.31-.473-.606-.923-.9-1.374-.365-.562-.72-1.13-1.097-1.683-.127-.188-.12-.333-.004-.517.886-1.41 1.766-2.823 2.643-4.238a.5.5 0 0 1 .473-.255c1.303.02 2.606.037 3.91.055.061 0 .123.008.203.014z"/></g><g><path fill="none" stroke="#0e0e0e" stroke-miterlimit="20" stroke-width="2" d="M0 38v0V0v0h38v38z" clip-path="url(&quot;#e136a&quot;)"/></g></g></g></svg>