<svg xmlns="http://www.w3.org/2000/svg" width="135" height="37" viewBox="0 0 135 37"><g><g><g><path fill="#fff" d="M121.891 31.193c-2.01-.012-3.825-.56-5.302-1.978-2.333-2.238-2.801-6.031-1.127-8.948 1.218-2.121 3.103-3.13 5.494-3.276 1.49-.091 2.935.084 4.268.819 1.52.837 2.56 2.077 3.031 3.749.6 2.12.591 4.22-.432 6.224-1.073 2.102-2.827 3.198-5.17 3.369-.254.018-.508.027-.762.04zm6.676 3.55c4.971-2.652 7.151-7.421 6.318-12.977-.698-4.657-3.457-7.656-7.857-9.158-2.68-.915-5.444-.934-8.21-.46-3.424.588-6.227 2.228-8.262 5.077-1.864 2.612-2.454 5.561-2.085 8.698.431 3.67 2.171 6.557 5.4 8.456 2.354 1.386 4.933 1.9 7.639 1.874 2.783 0 5.161-.498 7.057-1.51z"/><path fill="none" stroke="#000" stroke-miterlimit="20" d="M121.891 31.193c-2.01-.012-3.825-.56-5.302-1.978-2.333-2.238-2.801-6.031-1.127-8.948 1.218-2.121 3.103-3.13 5.494-3.276 1.49-.091 2.935.084 4.268.819 1.52.837 2.56 2.077 3.031 3.749.6 2.12.591 4.22-.432 6.224-1.073 2.102-2.827 3.198-5.17 3.369-.254.018-.508.027-.762.04zm6.676 3.55c4.971-2.652 7.151-7.421 6.318-12.977-.698-4.657-3.457-7.656-7.857-9.158-2.68-.915-5.444-.934-8.21-.46-3.424.588-6.227 2.228-8.262 5.077-1.864 2.612-2.454 5.561-2.085 8.698.431 3.67 2.171 6.557 5.4 8.456 2.354 1.386 4.933 1.9 7.639 1.874 2.783 0 5.161-.498 7.057-1.51z"/></g><g><path fill="#fff" d="M97.025 12.365h6.244v23.508h-6.244z"/><path fill="none" stroke="#000" stroke-miterlimit="20" d="M97.025 12.365v0h6.244v23.508h-6.244v0z"/></g><g><path fill="#fff" d="M91.198 35.933h-7.02v-.54c0-4.228.022-8.457-.02-12.685a8.723 8.723 0 0 0-.419-2.574c-.693-2.129-2.603-3.201-4.824-2.882-1.688.242-2.963 1.15-3.993 2.423-.286.354-.467.901-.47 1.361-.03 4.44-.013 8.88-.003 13.32.001.493.047.986.074 1.512H68.34V3.688h6.077V14.01c.67-.362 1.262-.713 1.88-1.01 2.934-1.407 5.94-1.55 8.955-.335 2.891 1.165 4.41 3.451 4.96 6.443.088.483.098.984.1 1.477.018 3.408.012 6.816.039 10.223.009 1.2.087 2.4.131 3.6.022.585.183 1.11.716 1.525z"/><path fill="none" stroke="#000" stroke-miterlimit="20" d="M91.198 35.933v0h-7.02v-.54c0-4.228.022-8.457-.02-12.685a8.723 8.723 0 0 0-.419-2.574c-.693-2.129-2.603-3.201-4.824-2.882-1.688.242-2.963 1.15-3.993 2.423-.286.354-.467.901-.47 1.361-.03 4.44-.013 8.88-.003 13.32.001.493.047.986.074 1.512H68.34v0-32.18 0h6.077V14.01c.67-.362 1.262-.713 1.88-1.01 2.934-1.407 5.94-1.55 8.955-.335 2.891 1.165 4.41 3.451 4.96 6.443.088.483.098.984.1 1.477.018 3.408.012 6.816.039 10.223.009 1.2.087 2.4.131 3.6.022.585.183 1.11.716 1.525z"/></g><g><path fill="#fff" d="M49.522 31.185c-2.677-.019-4.798-.82-6.295-2.86-2.253-3.07-1.756-8.392 2.189-10.552 2.147-1.176 6.555-1.413 9.018 1.45 1.056 1.227 1.47 2.695 1.587 4.252.177 2.373-.38 4.517-2.206 6.181-1.272 1.16-2.828 1.531-4.293 1.529zm-.212 5.138c.093-.023.184-.058.278-.068.87-.092 1.75-.127 2.61-.278 4.294-.754 7.442-3.057 9.295-7.033.964-2.07 1.125-4.276.897-6.514-.453-4.434-2.733-7.59-6.803-9.38-3.13-1.376-6.416-1.487-9.73-.817-4.303.87-7.407 3.278-9.154 7.343-.857 1.995-1.027 4.09-.814 6.235.307 3.09 1.632 5.641 4.025 7.622 2.006 1.66 4.383 2.403 6.921 2.72.541.067 1.084.114 1.626.17z"/><path fill="none" stroke="#000" stroke-miterlimit="20" d="M49.522 31.185c-2.677-.019-4.798-.82-6.295-2.86-2.253-3.07-1.756-8.392 2.189-10.552 2.147-1.176 6.555-1.413 9.018 1.45 1.056 1.227 1.47 2.695 1.587 4.252.177 2.373-.38 4.517-2.206 6.181-1.272 1.16-2.828 1.531-4.293 1.529zm-.212 5.138c.093-.023.184-.058.278-.068.87-.092 1.75-.127 2.61-.278 4.294-.754 7.442-3.057 9.295-7.033.964-2.07 1.125-4.276.897-6.514-.453-4.434-2.733-7.59-6.803-9.38-3.13-1.376-6.416-1.487-9.73-.817-4.303.87-7.407 3.278-9.154 7.343-.857 1.995-1.027 4.09-.814 6.235.307 3.09 1.632 5.641 4.025 7.622 2.006 1.66 4.383 2.403 6.921 2.72.541.067 1.084.114 1.626.17z"/></g><g><path fill="#c13001" d="M100.996.678c.12.114.226.246.359.34 1.46 1.041 2.924 2.076 4.387 3.113l.451.325-3.911 4.818-5.604-3.631c1.238-1.793 2.636-3.426 4.149-4.965z"/></g><g><path fill="#fff" d="M0 5.77c.393.026.786.076 1.178.072 1.566-.013 3.132-.035 4.698-.074.33-.009.518.12.688.381 2.302 3.542 4.609 7.08 6.918 10.618 1.412 2.165 2.82 4.333 4.253 6.485.275.412.285.73.014 1.15-.888 1.377-1.738 2.778-2.603 4.17-.096.153-.195.304-.323.503L6.73 17.117l-.083.023V35.9H0z"/></g><g><path fill="#c13001" d="M29.578 35.9h-6.565V16.087l-.12-.042-1.479 2.35c-.484-.74-.946-1.442-1.404-2.146-.57-.877-1.126-1.763-1.713-2.627-.199-.293-.187-.52-.006-.808 1.382-2.2 2.758-4.407 4.126-6.616.179-.287.416-.402.738-.397 2.035.03 4.07.056 6.104.085.097.002.194.013.319.021z"/></g></g></g></svg>