<svg width="256" height="138" viewBox="0 0 256 138" fill="none" xmlns="http://www.w3.org/2000/svg">
<path d="M54.1111 120.241C52.7426 118.872 47.5535 123.947 45.13 126.656C45.9852 127.511 48.1234 129.564 49.8341 130.933C51.5448 132.302 52.828 136.065 53.2558 137.776C48.4087 134.069 38.0303 125.373 35.2932 120.241C31.8718 113.826 49.4064 100.568 47.6957 97.5743C45.985 94.5806 33.1548 103.562 30.5887 101.851C28.0227 100.14 33.1548 96.719 33.1548 95.008C33.1548 93.297 29.3057 96.2913 27.595 95.008C25.8843 93.7246 29.3057 91.5869 33.1548 89.8762C37.0039 88.1655 34.4378 84.3164 33.1548 82.6057C31.8718 80.895 14.7648 85.1718 13.0541 80.4672C11.3434 75.7626 18.1862 77.9013 18.6139 74.9076C19.0415 71.9139 13.9094 72.7692 13.0541 68.9198C12.1987 65.0705 25.029 64.6431 22.8906 60.794C20.7522 56.945 3.21788 67.2091 0.22416 58.2283C-2.76956 49.2474 24.6016 43.2595 59.6709 26.5804C94.7402 9.90123 124.453 4.12305 159.95 0.701653C195.447 -2.71974 234.162 7.11672 246.992 14.1777C256.471 19.3943 229.661 9.25509 212.127 8.39974C198.099 7.71547 168.158 10.3285 157.608 11.6115C168.015 11.3264 191.769 9.68264 206.139 9.68264C220.509 9.68264 237.869 14.7478 244.426 16.7436L242.716 21.0204C243.286 21.3055 245.196 21.9613 248.275 22.3034C251.355 22.6455 251.839 24.7269 251.697 25.7248C253.265 26.0099 256.316 27.3499 255.973 30.4292C255.631 33.5085 252.98 33.9932 251.697 33.8506C249.986 34.4208 246.137 35.4758 244.426 35.1336C242.288 34.7059 229.458 31.2845 224.326 30.4292C219.193 29.5738 220.049 31.2846 224.326 32.14C227.747 32.8243 238.011 35.8465 242.716 37.2721H232.024C227.523 37.2721 233.82 40.8645 234.162 43.2595C234.59 46.2532 230.313 45.8256 228.602 47.5363C227.234 48.9048 225.181 52.9535 224.326 54.8067C216.627 54.8067 199.007 55.3199 190.112 57.3726C181.216 59.4253 147.914 73.6243 132.376 80.4672C146.061 75.1925 176.768 61.3075 190.112 58.2283C203.455 55.149 216.485 57.2301 221.332 57.3726C220.476 58.228 218.338 60.1097 216.627 60.794C214.489 61.6494 209.357 62.077 204.225 62.5047C200.119 62.8469 190.824 65.7836 186.69 67.2091V64.6431C184.837 65.2133 160.036 72.8547 155.246 74.9076C149.258 77.4736 118.893 87.5196 111.623 93.507C106.505 97.7217 145.888 83.7608 172.999 73.063C176.885 71.4893 180.376 70.0819 183.269 68.9198C180.17 70.2038 176.699 71.603 172.999 73.063C153.524 80.949 124.112 93.0098 110.136 99.2847C93.3717 106.812 80.627 116.392 76.3502 120.241C74.6395 120.811 70.2772 122.55 66.5137 124.945C62.7502 127.34 60.0986 131.075 59.2432 132.643C58.1028 132.216 55.3086 130.933 53.2558 129.222C50.6897 127.084 55.8218 121.952 54.1111 120.241Z" fill="#FF0000"/>
<path d="M89.4038 73.9126C89.3852 69.3528 89.3576 64.9081 89.321 60.5785C89.2788 58.7746 89.2364 56.8898 89.1938 54.9241C89.176 52.921 89.1365 50.9709 89.0754 49.0737C89.008 47.1454 88.9254 45.3011 88.8274 43.5408C88.7541 41.7431 88.6503 40.1135 88.5158 38.6519C89.4658 38.3948 90.3847 38.1439 91.2726 37.8993C92.0673 37.6736 92.8807 37.4603 93.7127 37.2594C94.5385 37.0274 95.2711 36.8142 95.9105 36.62C96.7991 38.9321 97.6191 41.1449 98.3704 43.2583C98.7146 44.1596 99.0683 45.1075 99.4313 46.102C99.8192 47.0591 100.185 47.9883 100.529 48.8896C100.874 49.7908 101.211 50.661 101.543 51.5001C101.868 52.3081 102.175 53.0228 102.462 53.6442C102.454 52.9662 102.443 52.1917 102.428 51.3208C102.407 50.4189 102.395 49.4826 102.392 48.5122C102.383 47.5107 102.371 46.4936 102.356 45.461C102.372 44.4221 102.379 43.4174 102.376 42.4469C102.401 40.1763 102.422 37.8092 102.44 35.3457L107.981 33.4952C107.87 38.3725 107.833 42.976 107.869 47.3056C107.862 49.1843 107.858 51.0786 107.857 52.9884C107.887 54.8919 107.92 56.7301 107.956 58.5029C107.992 60.2758 108.049 61.9148 108.127 63.4201C108.2 64.8943 108.275 66.1414 108.352 67.1614C108.259 67.1803 107.902 67.3335 107.281 67.621C106.686 67.8712 105.987 68.1744 105.187 68.5308C104.417 68.8809 103.635 69.2496 102.841 69.6371C102.072 69.9872 101.498 70.2653 101.119 70.4714C100.392 67.9971 99.674 65.6504 98.9658 63.4311C98.6774 62.4862 98.3672 61.5133 98.0352 60.5125C97.7032 59.5117 97.3806 58.5575 97.0674 57.65C96.7853 56.7361 96.5003 55.8876 96.2124 55.1044C95.9492 54.2839 95.7143 53.6032 95.5078 53.0625C95.528 53.641 95.5424 54.3501 95.5509 55.1899C95.5594 56.0297 95.5805 56.9317 95.6142 57.8958C95.6415 58.8289 95.6784 59.8086 95.7247 60.8349C95.7646 61.8301 95.786 62.813 95.7886 63.7834C95.8321 66.0726 95.8634 68.4613 95.8826 70.9496L89.4038 73.9126Z" fill="white"/>
<path d="M89.4038 73.9126C89.3852 69.3528 89.3576 64.9081 89.321 60.5785C89.2788 58.7746 89.2364 56.8898 89.1938 54.9241C89.176 52.921 89.1365 50.9709 89.0754 49.0737C89.008 47.1454 88.9254 45.3011 88.8274 43.5408C88.7541 41.7431 88.6503 40.1135 88.5158 38.6519C89.4658 38.3948 90.3847 38.1439 91.2726 37.8993C92.0673 37.6736 92.8807 37.4603 93.7127 37.2594C94.5385 37.0274 95.2711 36.8142 95.9105 36.62C96.7991 38.9321 97.6191 41.1449 98.3704 43.2583C98.7146 44.1596 99.0683 45.1075 99.4313 46.102C99.8192 47.0591 100.185 47.9883 100.529 48.8896C100.874 49.7908 101.211 50.661 101.543 51.5001C101.868 52.3081 102.175 53.0228 102.462 53.6442C102.454 52.9662 102.443 52.1917 102.428 51.3208C102.407 50.4189 102.395 49.4826 102.392 48.5122C102.383 47.5107 102.371 46.4936 102.356 45.461C102.372 44.4221 102.379 43.4174 102.376 42.4469C102.401 40.1763 102.422 37.8092 102.44 35.3457L107.981 33.4952C107.87 38.3725 107.833 42.976 107.869 47.3056C107.862 49.1843 107.858 51.0786 107.857 52.9884C107.887 54.8919 107.92 56.7301 107.956 58.5029C107.992 60.2758 108.049 61.9148 108.127 63.4201C108.2 64.8943 108.275 66.1414 108.352 67.1614C108.259 67.1803 107.902 67.3335 107.281 67.621C106.686 67.8712 105.987 68.1744 105.187 68.5308C104.417 68.8809 103.635 69.2496 102.841 69.6371C102.072 69.9872 101.498 70.2653 101.119 70.4714C100.392 67.9971 99.674 65.6504 98.9658 63.4311C98.6774 62.4862 98.3672 61.5133 98.0352 60.5125C97.7032 59.5117 97.3806 58.5575 97.0674 57.65C96.7853 56.7361 96.5003 55.8876 96.2124 55.1044C95.9492 54.2839 95.7143 53.6032 95.5078 53.0625C95.528 53.641 95.5424 54.3501 95.5509 55.1899C95.5594 56.0297 95.5805 56.9317 95.6142 57.8958C95.6415 58.8289 95.6784 59.8086 95.7247 60.8349C95.7646 61.8301 95.786 62.813 95.7886 63.7834C95.8321 66.0726 95.8634 68.4613 95.8826 70.9496L89.4038 73.9126Z" fill="white"/>
<path d="M110.564 69.4321L109.948 35.0386L124.411 30.7981C124.332 31.5261 124.287 32.2634 124.277 33.0099C124.241 33.6321 124.212 34.2853 124.189 34.9697C124.191 35.6166 124.196 36.1983 124.203 36.7146C123.899 36.8086 123.455 36.9309 122.871 37.0815C122.313 37.1947 121.71 37.3329 121.064 37.496C120.412 37.6281 119.745 37.7634 119.062 37.9017C118.41 38.0338 117.835 38.1502 117.338 38.2508L117.399 46.9287C118.349 46.6716 119.24 46.4425 120.072 46.2416C120.749 46.0721 121.445 45.9151 122.159 45.7704C122.873 45.6257 123.398 45.5033 123.733 45.403C123.785 46.2987 123.834 47.1788 123.88 48.0434C123.957 48.9017 124.006 49.7818 124.027 50.6838C123.723 50.7778 123.217 50.9127 122.509 51.0884C121.826 51.2268 121.13 51.3839 120.422 51.5596C119.621 51.7542 118.743 51.9646 117.786 52.1907L117.941 61.0923L124.524 58.6422L125.135 64.053L110.564 69.4321Z" fill="white"/>
<path d="M110.564 69.4321L109.948 35.0386L124.411 30.7981C124.332 31.5261 124.287 32.2634 124.277 33.0099C124.241 33.6321 124.212 34.2853 124.189 34.9697C124.191 35.6166 124.196 36.1983 124.203 36.7146C123.899 36.8086 123.455 36.9309 122.871 37.0815C122.313 37.1947 121.71 37.3329 121.064 37.496C120.412 37.6281 119.745 37.7634 119.062 37.9017C118.41 38.0338 117.835 38.1502 117.338 38.2508L117.399 46.9287C118.349 46.6716 119.24 46.4425 120.072 46.2416C120.749 46.0721 121.445 45.9151 122.159 45.7704C122.873 45.6257 123.398 45.5033 123.733 45.403C123.785 46.2987 123.834 47.1788 123.88 48.0434C123.957 48.9017 124.006 49.7818 124.027 50.6838C123.723 50.7778 123.217 50.9127 122.509 51.0884C121.826 51.2268 121.13 51.3839 120.422 51.5596C119.621 51.7542 118.743 51.9646 117.786 52.1907L117.941 61.0923L124.524 58.6422L125.135 64.053L110.564 69.4321Z" fill="white"/>
<path d="M128.003 66.0452L124.835 32.2172C126.282 31.8594 127.62 31.4428 128.849 30.9672C130.102 30.4543 131.356 30.0223 132.61 29.6712C132.617 29.7023 132.636 30.0381 132.669 30.6788C132.696 31.2884 132.732 32.1064 132.778 33.1327C132.818 34.1279 132.871 35.2662 132.937 36.5476C132.996 37.7978 133.057 39.5333 133.119 41.754C133.212 43.9684 133.347 47.0318 133.526 50.9443L134.224 50.8028C134.452 47.779 134.647 45.312 134.81 43.4018C134.966 41.4606 135.086 39.8989 135.17 38.7168C135.279 37.4973 135.366 36.3307 135.431 35.217C135.527 34.097 135.608 33.0611 135.674 32.1091C135.771 31.1509 135.834 30.3452 135.863 29.6919L136.282 29.607C136.841 29.4938 137.394 29.3495 137.94 29.1741C138.518 28.9924 139.048 28.8202 139.533 28.6574C140.042 28.4572 140.563 28.2383 141.097 28.0007C141.091 28.2931 141.13 28.884 141.213 29.7734C141.328 30.6565 141.448 31.7324 141.576 33.0012C141.698 34.2388 141.847 35.6164 142.025 37.1339C142.197 38.6203 142.366 40.0911 142.531 41.5464C142.691 42.9707 142.837 44.3327 142.971 45.6325C143.136 46.9261 143.264 48.0331 143.353 48.9536L144.191 48.7838L144.554 27.8344C145.578 27.4651 146.59 27.1145 147.589 26.7825C148.465 26.4758 149.371 26.1627 150.308 25.8434C151.246 25.524 152.071 25.2112 152.785 24.9048C152.584 26.3049 152.414 27.8605 152.276 29.5715C152.131 31.2514 151.99 33.0278 151.852 34.9006C151.714 36.7733 151.595 38.6585 151.495 40.5561C151.425 42.4474 151.343 44.2765 151.249 46.0434C151.061 50.2242 150.927 54.5075 150.846 58.8934L140.679 62.7978L139.081 44.3815L138.522 44.4947L137.341 62.3573L128.003 66.0452Z" fill="white"/>
<path d="M128.003 66.0452L124.835 32.2172C126.282 31.8594 127.62 31.4428 128.849 30.9672C130.102 30.4543 131.356 30.0223 132.61 29.6712C132.617 29.7023 132.636 30.0381 132.669 30.6788C132.696 31.2884 132.732 32.1064 132.778 33.1327C132.818 34.1279 132.871 35.2662 132.937 36.5476C132.996 37.7978 133.057 39.5333 133.119 41.754C133.212 43.9684 133.347 47.0318 133.526 50.9443L134.224 50.8028C134.452 47.779 134.647 45.312 134.81 43.4018C134.966 41.4606 135.086 39.8989 135.17 38.7168C135.279 37.4973 135.366 36.3307 135.431 35.217C135.527 34.097 135.608 33.0611 135.674 32.1091C135.771 31.1509 135.834 30.3452 135.863 29.6919L136.282 29.607C136.841 29.4938 137.394 29.3495 137.94 29.1741C138.518 28.9924 139.048 28.8202 139.533 28.6574C140.042 28.4572 140.563 28.2383 141.097 28.0007C141.091 28.2931 141.13 28.884 141.213 29.7734C141.328 30.6565 141.448 31.7324 141.576 33.0012C141.698 34.2388 141.847 35.6164 142.025 37.1339C142.197 38.6203 142.366 40.0911 142.531 41.5464C142.691 42.9707 142.837 44.3327 142.971 45.6325C143.136 46.9261 143.264 48.0331 143.353 48.9536L144.191 48.7838L144.554 27.8344C145.578 27.4651 146.59 27.1145 147.589 26.7825C148.465 26.4758 149.371 26.1627 150.308 25.8434C151.246 25.524 152.071 25.2112 152.785 24.9048C152.584 26.3049 152.414 27.8605 152.276 29.5715C152.131 31.2514 151.99 33.0278 151.852 34.9006C151.714 36.7733 151.595 38.6585 151.495 40.5561C151.425 42.4474 151.343 44.2765 151.249 46.0434C151.061 50.2242 150.927 54.5075 150.846 58.8934L140.679 62.7978L139.081 44.3815L138.522 44.4947L137.341 62.3573L128.003 66.0452Z" fill="white"/>
</svg>
