<svg xmlns="http://www.w3.org/2000/svg" width="16" height="32" viewBox="0 0 16 32"><g><g><path fill="#fff" d="M14.484 27.537H1.265a.141.141 0 0 1-.14-.141V4.263c0-.077.063-.14.14-.14h13.219c.077 0 .14.063.14.14v23.133c0 .077-.063.14-.14.14zM7.91 30.982a1.224 1.224 0 1 1 .001-2.449 1.224 1.224 0 0 1-.001 2.449zM8.93 2.154c.154 0 .28.126.28.281a.282.282 0 0 1-.28.281H6.82a.282.282 0 0 1-.281-.28c0-.156.126-.282.28-.282zM13.477.537H2.327A2.314 2.314 0 0 0 0 2.85v26.789c0 1.294 1.04 2.398 2.327 2.398H13.47c1.287 0 2.271-1.104 2.271-2.398V2.849c.008-1.286-.977-2.312-2.264-2.312z"/></g></g></svg>