<svg xmlns="http://www.w3.org/2000/svg" width="27" height="27" viewBox="0 0 27 27"><g><g clip-path="url(#clip-633bb072-f264-4805-9db5-4288438775c1)"><g><g><path fill="#0e0e0e" d="M24.932 24.44c0 .309-.253.562-.563.562H2.432a.564.564 0 0 1-.563-.563V2.502c0-.31.253-.563.563-.563h21.937c.31 0 .563.254.563.563zM24.65-.03H2.15A2.248 2.248 0 0 0-.1 2.22v22.5a2.248 2.248 0 0 0 2.25 2.25h22.5a2.248 2.248 0 0 0 2.25-2.25V2.22a2.248 2.248 0 0 0-2.25-2.25z"/></g><g><path fill="#c13001" d="M20.966 9.034l-1.237-1.273a.266.266 0 0 0-.197-.084.255.255 0 0 0-.197.084l-8.578 8.642-3.122-3.122a.278.278 0 0 0-.197-.085c-.07 0-.14.029-.197.085l-1.252 1.251a.28.28 0 0 0 0 .401l3.938 3.938c.253.253.562.4.823.4.372 0 .696-.274.815-.386h.007l9.401-9.45c.098-.12.098-.296-.007-.401z"/></g></g></g></g></svg>