<svg xmlns="http://www.w3.org/2000/svg" width="59" height="43" viewBox="0 0 59 43"><g><g><path fill="#c13001" d="M11.902 42.02l-.282-.268V23.885l-5.158-.031-5.158-.036-.268-.318-.273-.318V1.25l.282-.273.272-.282h23.316l.273.282.282.273v21.91l-5.95 9.377c-3.265 5.152-6.048 9.461-6.173 9.572a.782.782 0 0 1-.52.194.895.895 0 0 1-.643-.283z"/></g><g><path fill="#c13001" d="M45.373 42.02l-.283-.268V23.885l-5.157-.031-5.158-.036-.269-.318-.273-.318V1.25l.283-.273.272-.282h23.316l.272.282.282.273v21.91l-5.949 9.377c-3.266 5.152-6.048 9.461-6.173 9.572a.782.782 0 0 1-.52.194.895.895 0 0 1-.643-.283z"/></g></g></svg>