<svg xmlns="http://www.w3.org/2000/svg" width="22" height="18" viewBox="0 0 22 18"><g><g><path d="M19.314 4.967c.013.188.013.377.013.566 0 5.752-4.378 12.38-12.38 12.38-2.464 0-4.754-.715-6.68-1.954a9 9 0 0 0 1.05.054 8.714 8.714 0 0 0 5.402-1.86 4.359 4.359 0 0 1-4.068-3.017c.27.04.539.068.822.068.39 0 .78-.054 1.145-.148a4.352 4.352 0 0 1-3.49-4.27v-.054c.58.323 1.253.525 1.967.552a4.348 4.348 0 0 1-1.94-3.624c0-.808.216-1.549.593-2.195a12.367 12.367 0 0 0 8.972 4.553 4.911 4.911 0 0 1-.108-.997A4.349 4.349 0 0 1 14.962.67a4.34 4.34 0 0 1 3.18 1.374 8.566 8.566 0 0 0 2.761-1.05A4.34 4.34 0 0 1 18.99 3.39a8.722 8.722 0 0 0 2.506-.674 9.353 9.353 0 0 1-2.182 2.25z"/></g></g></svg>