<svg xmlns="http://www.w3.org/2000/svg" width="35" height="17" viewBox="0 0 35 17"><g><g opacity=".4"><path fill="#fff" d="M7.688 13.353l5.401-2.513V7.274L7.687 4.76v2.135l3.956 1.84h.896v.642h-.896l-3.956 1.84zM28.215 4.76l-5.402 2.513v3.566l5.402 2.513v-2.135l-3.956-1.84h-.895v-.643h.895l3.956-1.84zm-10.083 8.23c2.367 0 3.96-1.551 3.96-3.688V4.76h-2.031v4.542c0 1.17-.908 1.694-1.93 1.694-1.022 0-1.93-.524-1.93-1.694V4.76H14.17v4.542c0 2.137 1.594 3.688 3.962 3.688zM26.783 17H9.103C4.543 17 .845 13.38.845 8.912.845 4.447 4.542.826 9.103.826h17.68c4.56 0 8.259 3.62 8.259 8.087S31.344 17 26.783 17"/></g></g></svg>